<svg width="81" height="81" viewBox="0 0 81 81" fill="none" xmlns="http://www.w3.org/2000/svg">
<path d="M60.7537 19.9713C54.234 18.3293 47.3275 19.9039 43.5677 23.888C43.3712 24.0957 43.1555 24.2817 42.9237 24.4442C43.7593 16.0607 50.853 9.49217 59.4522 9.49217C60.763 9.49217 61.8253 8.42986 61.8253 7.11913C61.8253 5.80839 60.763 4.74609 59.4522 4.74609C52.5395 4.74609 46.3844 8.04795 42.4788 13.1568C40.8844 5.64957 34.2047 0 26.2296 0H16.7375C15.4267 0 14.3644 1.06231 14.3644 2.37304C14.3644 11.5327 21.816 18.9825 30.9757 18.9825H39.3166C38.6931 20.74 38.2932 22.6039 38.1523 24.5369C37.8668 24.3527 37.6011 24.1352 37.365 23.8849C33.4075 19.6938 26.965 18.0549 20.551 19.6091C13.6692 21.2764 8.39906 26.2907 6.45428 33.0224C4.73444 38.9735 4.4304 46.2539 5.62001 52.9973C6.90355 60.2784 9.75058 67.1497 13.6371 72.3469C17.8097 77.9267 22.7869 80.9999 27.6504 80.9999C29.5989 80.9999 31.4701 80.5222 33.211 79.5804C35.4573 78.3636 37.9669 77.7209 40.4679 77.7209C42.9682 77.7209 45.4797 78.3642 47.7254 79.5785C49.4601 80.5215 51.3307 80.9999 53.2854 80.9999C58.1495 80.9999 63.1261 77.9267 67.2993 72.3463C71.1852 67.1497 74.0328 60.2771 75.3158 52.9955C76.4627 46.4956 76.2224 39.4327 74.6564 33.6175C72.7938 26.7011 67.727 21.7269 60.7537 19.9713ZM30.9757 14.2383C25.2458 14.2383 20.4515 10.1553 19.349 4.74609H26.2296C31.9595 4.74609 36.7538 8.82908 37.8563 14.2383H30.9757ZM70.642 52.1711C69.4851 58.7353 66.9477 64.891 63.4981 69.5042C60.2902 73.7936 56.5681 76.2538 53.2854 76.2538C52.1316 76.2538 51.0242 75.9695 49.9879 75.4059C47.045 73.8152 43.7537 72.9748 40.4679 72.9748C37.1802 72.9748 33.8895 73.8158 30.9522 75.4065C29.9128 75.9689 28.8017 76.2538 27.6504 76.2538C24.3677 76.2538 20.6456 73.7936 17.4376 69.5042C13.9875 64.8916 11.4506 58.7365 10.2938 52.173C9.24137 46.2076 9.51081 39.5414 11.0137 34.3399C12.5018 29.1897 16.3852 25.5022 21.6689 24.2217C26.3594 23.0853 31.1654 24.2322 33.9142 27.1435C35.6081 28.9369 37.9954 29.9658 40.4642 29.9671H40.4679H40.4691C42.9404 29.9665 45.3277 28.9381 47.0191 27.146C49.5955 24.4158 54.7667 23.3584 59.5944 24.574C62.6836 25.352 68.1534 27.7213 70.0734 34.8516C71.4447 39.9425 71.6573 46.4171 70.642 52.1711Z" fill="#FF56A7"/>
</svg>
