<svg width="99" height="99" viewBox="0 0 99 99" fill="none" xmlns="http://www.w3.org/2000/svg">
<path d="M57.6408 92.6727C56.65 92.2753 55.5239 92.7568 55.1266 93.7481C54.7946 94.5763 53.9527 95.1328 53.0319 95.1328H45.9681C45.0473 95.1328 44.2054 94.5763 43.8734 93.7481C43.4761 92.7568 42.3505 92.2763 41.3592 92.6727C40.368 93.0702 39.8866 94.1958 40.2839 95.1869C41.2126 97.5034 43.4436 99 45.9681 99H53.0319C55.5564 99 57.7874 97.5034 58.7159 95.1869C59.1134 94.1958 58.632 93.0702 57.6408 92.6727Z" fill="#FF56A7"/>
<path d="M80.3487 82.7118C79.8236 80.004 78.1553 77.6597 75.7706 76.2752C76.2043 75.921 76.6111 75.5293 76.9823 75.0979C78.8137 72.9704 79.6246 70.1579 79.2067 67.3823C78.5283 62.8723 76.6088 58.6585 73.656 55.196C71.4451 52.6036 68.7276 50.5146 65.6863 49.0466C69.4083 45.0761 71.6915 39.7413 71.6915 33.8827C71.6913 23.7441 64.8566 15.1716 55.5527 12.5305C56.82 11.0174 57.5114 9.12714 57.5114 7.12974C57.5116 3.19836 54.3131 0 50.3819 0C50.3817 0 50.3815 0 50.3813 0C48.7944 0 47.3081 0.516076 46.1964 1.4529C44.9678 2.48815 44.2913 3.94318 44.2911 5.5498C44.2911 6.61753 45.1567 7.48339 46.2247 7.48339C47.2924 7.48339 48.1583 6.61772 48.1583 5.5498C48.1583 5.0898 48.3365 4.70637 48.6885 4.40975C49.1038 4.05977 49.7049 3.86699 50.3815 3.86699H50.3817C52.1807 3.86699 53.6444 5.33034 53.6444 7.12935C53.6444 8.3479 53.1699 9.49337 52.3083 10.355C51.4467 11.2164 50.3015 11.6909 49.0833 11.6909C49.0831 11.6909 49.0831 11.6909 49.0829 11.6909C49.0355 11.6909 48.9891 11.6946 48.9427 11.698C36.9629 11.995 27.3087 21.8326 27.3085 33.8826C27.3085 39.7412 29.5917 45.0759 33.3137 49.0464C30.2725 50.5144 27.555 52.6032 25.3442 55.1958C22.3914 58.6583 20.4719 62.8722 19.7932 67.3819C19.3756 70.1577 20.1863 72.9702 22.0176 75.0977C22.3889 75.5291 22.7957 75.921 23.2294 76.2751C20.8447 77.6595 19.1762 80.0038 18.6512 82.7116C18.1247 85.4264 18.8003 88.2326 20.5044 90.4104L24.6452 95.7017C26.3181 97.8395 28.8595 98.989 31.4371 98.989C32.9005 98.989 34.3758 98.6185 35.7104 97.848C39.396 95.72 40.9753 91.139 39.3842 87.1921L36.8723 80.9605C36.7044 80.5442 36.506 80.1449 36.2846 79.7613H50.4668C51.5347 79.7613 52.4004 78.8955 52.4004 77.8277C52.4004 76.76 51.5347 75.8941 50.4668 75.8941H32.6089V71.8179C32.6089 71.293 33.0358 70.866 33.5608 70.866H65.4394C65.9641 70.866 66.3913 71.293 66.3913 71.8179V76.1615C64.4728 77.2132 62.9582 78.9001 62.1275 80.9605L59.6156 87.1919C58.0244 91.139 59.6038 95.72 63.2894 97.848C64.6242 98.6185 66.0989 98.989 67.5626 98.989C70.1401 98.989 72.6818 97.8393 74.3548 95.7017L78.4954 90.4104C80.1998 88.2326 80.8752 85.4266 80.3487 82.7118ZM31.1755 33.8827C31.1757 23.7788 39.3962 15.5585 49.5 15.5583C59.6038 15.5585 67.8243 23.7788 67.8245 33.8827C67.8245 43.9867 59.6042 52.207 49.5 52.2072C39.396 52.207 31.1755 43.9867 31.1755 33.8827ZM33.286 82.4065L35.798 88.6383C36.6729 90.8091 35.804 93.3288 33.777 94.4992C31.7502 95.6696 29.1334 95.1624 27.6908 93.3187L23.55 88.0274C22.5362 86.7321 22.1344 85.063 22.4477 83.4481C22.7609 81.8332 23.7577 80.4352 25.1823 79.6126C26.6068 78.7901 28.3159 78.6263 29.8711 79.1621C31.4263 79.6983 32.6709 80.8811 33.286 82.4065ZM65.4521 63.1318C64.3842 63.1318 63.5185 63.9977 63.5185 65.0654V66.999H35.4942V65.0654C35.4942 63.9977 34.6285 63.1318 33.5606 63.1318C32.4927 63.1318 31.627 63.9977 31.627 65.0654V67.4053C29.9299 68.1518 28.7415 69.8484 28.7415 71.8181V74.5485C27.2772 74.4022 25.9185 73.7018 24.9484 72.5749C23.8526 71.3017 23.3675 69.6187 23.6173 67.9575C24.7243 60.5996 29.6302 54.5202 36.5174 51.8688C40.1704 54.5128 44.6559 56.0742 49.5 56.0742C54.344 56.0742 58.8296 54.5128 62.4825 51.8688C69.3698 54.5202 74.2757 60.5996 75.3827 67.9575C75.6325 69.6187 75.1474 71.3017 74.0514 72.5749C73.0815 73.7018 71.7226 74.4022 70.2583 74.5485V71.8181C70.2583 69.8534 69.0759 68.1605 67.3857 67.4111V65.0654C67.3857 63.9977 66.5201 63.1318 65.4521 63.1318ZM75.45 88.0272L71.3094 93.3185C69.8667 95.1618 67.2504 95.6692 65.2232 94.499C63.196 93.3286 62.3272 90.8089 63.2024 88.6377L65.7143 82.4061C66.3294 80.8805 67.5741 79.6979 69.1292 79.1617C69.7316 78.9542 70.3569 78.8516 70.9799 78.8516C71.9654 78.8516 72.9452 79.1085 73.818 79.6124C75.2427 80.435 76.2393 81.833 76.5527 83.4479C76.8656 85.0629 76.4638 86.7319 75.45 88.0272Z" fill="#FF56A7"/>
<path d="M59.5141 76.4601C59.1544 76.1004 58.6555 75.8936 58.147 75.8936C57.6385 75.8936 57.1396 76.1003 56.78 76.4601C56.4203 76.8199 56.2134 77.3186 56.2134 77.8271C56.2134 78.3376 56.4203 78.8346 56.78 79.194C57.1396 79.5556 57.6385 79.7607 58.147 79.7607C58.6555 79.7607 59.1544 79.5556 59.5141 79.194C59.8737 78.8346 60.0806 78.3357 60.0806 77.8271C60.0806 77.3186 59.8737 76.8197 59.5141 76.4601Z" fill="#FF56A7"/>
<path d="M54.8309 40.486C54.0014 39.8135 52.7838 39.9413 52.1113 40.7706C51.4688 41.5634 50.5169 42.018 49.5 42.018C48.4831 42.018 47.531 41.5632 46.8887 40.7706C46.2164 39.9409 44.9988 39.8139 44.1691 40.486C43.3394 41.1583 43.212 42.3759 43.8845 43.2056C45.2647 44.9085 47.3116 45.885 49.5 45.885C51.6884 45.885 53.7355 44.9083 55.1155 43.2056C55.788 42.3759 55.6606 41.1583 54.8309 40.486Z" fill="#FF56A7"/>
<path d="M44.614 32.5153C42.86 30.7613 40.006 30.7613 38.2517 32.5153C37.4966 33.2704 37.4964 34.4945 38.2517 35.2498C39.0067 36.0051 40.2311 36.005 40.9862 35.25C41.2323 35.0038 41.6331 35.0038 41.8795 35.25C42.2571 35.6274 42.7519 35.8163 43.2467 35.8163C43.7415 35.8163 44.2365 35.6274 44.614 35.25C45.369 34.4949 45.369 33.2706 44.614 32.5153Z" fill="#FF56A7"/>
<path d="M60.7483 32.5152C58.9941 30.7614 56.14 30.7614 54.386 32.5152C53.6309 33.2702 53.6309 34.4946 54.386 35.2498C54.7634 35.6275 55.2584 35.8162 55.7532 35.8162C56.248 35.8162 56.743 35.6273 57.1205 35.2498C57.3666 35.0039 57.7675 35.0035 58.0138 35.2498C58.7689 36.0051 59.9932 36.0049 60.7483 35.2496C61.5034 34.4946 61.5034 33.2704 60.7483 32.5152Z" fill="#FF56A7"/>
</svg>
