<svg width="100" height="100" viewBox="0 0 100 100" fill="none" xmlns="http://www.w3.org/2000/svg">
<g clip-path="url(#clip0)">
<path d="M76.2918 6.25C74.7839 6.25 73.5574 5.02344 73.5574 3.51562C73.5574 1.57715 71.9802 0 70.0418 0C68.1033 0 66.5261 1.57715 66.5261 3.51562C66.5261 5.02344 65.2996 6.25 63.7918 6.25C61.8533 6.25 60.2761 7.82715 60.2761 9.76562C60.2761 11.7041 61.8533 13.2812 63.7918 13.2812C65.2996 13.2812 66.5261 14.5078 66.5261 16.0156C66.5261 17.9541 68.1033 19.5312 70.0418 19.5312C71.9802 19.5312 73.5574 17.9541 73.5574 16.0156C73.5574 14.5078 74.7839 13.2812 76.2918 13.2812C78.2302 13.2812 79.8074 11.7041 79.8074 9.76562C79.8074 7.82715 78.2302 6.25 76.2918 6.25ZM70.0416 13.7705C69.372 11.9117 67.8955 10.4354 66.0369 9.76562C67.8955 9.0959 69.372 7.61953 70.0416 5.76074C70.7111 7.61953 72.1877 9.0959 74.0462 9.76562C72.1877 10.4354 70.7113 11.9117 70.0416 13.7705Z" fill="#FF56A7"/>
<path d="M88.2418 23.0537C86.734 23.0537 85.5074 21.8271 85.5074 20.3193C85.5074 18.3809 83.9303 16.8037 81.9918 16.8037C80.0533 16.8037 78.4762 18.3809 78.4762 20.3193C78.4762 21.8271 77.2496 23.0537 75.7418 23.0537C73.8033 23.0537 72.2262 24.6309 72.2262 26.5693C72.2262 28.5078 73.8033 30.085 75.7418 30.085C77.2496 30.085 78.4762 31.3115 78.4762 32.8193C78.4762 34.7578 80.0533 36.335 81.9918 36.335C83.9305 36.335 85.5074 34.7578 85.5074 32.8193C85.5074 31.3115 86.734 30.085 88.2418 30.085C90.1803 30.085 91.7574 28.5078 91.7574 26.5693C91.7574 24.6309 90.1803 23.0537 88.2418 23.0537ZM81.9918 30.5742C81.3223 28.7154 79.8457 27.2391 77.9871 26.5693C79.8457 25.8996 81.3223 24.4232 81.9918 22.5645C82.6614 24.4232 84.1379 25.8996 85.9965 26.5693C84.1379 27.2391 82.6615 28.7154 81.9918 30.5742Z" fill="#FF56A7"/>
<path d="M48.2602 25.4169L40.2658 24.0051C39.5086 23.8715 38.7436 24.1944 38.3111 24.8303L35.1478 29.4817C32.4881 33.396 28.4961 36.1885 23.9072 37.3454C22.8611 37.609 22.2269 38.6708 22.4906 39.7167C22.7139 40.6026 23.5092 41.1928 24.383 41.1928C24.541 41.1928 24.7018 41.1737 24.8621 41.1329C30.3803 39.742 35.1805 36.384 38.3785 31.6776L40.8309 28.0715L47.5811 29.2635C48.643 29.4506 49.6564 28.742 49.8439 27.6799C50.0314 26.6174 49.3225 25.6044 48.2602 25.4169Z" fill="#FF56A7"/>
<path d="M62.4336 91.6543C62.4082 91.5312 62.3711 91.4082 62.3223 91.2891C62.2734 91.1719 62.2129 91.0586 62.1426 90.9531C62.0703 90.8457 61.9883 90.7461 61.8984 90.6562C61.8086 90.5664 61.709 90.4844 61.6016 90.4121C61.4961 90.3418 61.3828 90.2812 61.2656 90.2324C61.1465 90.1836 61.0234 90.1465 60.9004 90.1211C60.6484 90.0703 60.3887 90.0703 60.1367 90.1211C60.0117 90.1465 59.8887 90.1836 59.7715 90.2324C59.6523 90.2812 59.5391 90.3418 59.4336 90.4121C59.3262 90.4844 59.2266 90.5664 59.1367 90.6562C59.0469 90.7461 58.9648 90.8457 58.8945 90.9531C58.8242 91.0586 58.7637 91.1719 58.7148 91.2891C58.666 91.4082 58.6289 91.5312 58.6035 91.6543C58.5781 91.7812 58.5645 91.9103 58.5645 92.0371C58.5645 92.1641 58.5781 92.293 58.6035 92.418C58.6289 92.543 58.666 92.666 58.7148 92.7832C58.7637 92.9023 58.8242 93.0156 58.8945 93.1211C58.9648 93.2285 59.0469 93.3281 59.1367 93.4179C59.2266 93.5078 59.3262 93.5898 59.4336 93.6601C59.5391 93.7303 59.6523 93.791 59.7715 93.8398C59.8887 93.8887 60.0117 93.9256 60.1367 93.9512C60.2617 93.9765 60.3906 93.99 60.5176 93.99C60.6445 93.99 60.7734 93.9765 60.9004 93.9512C61.0234 93.9256 61.1465 93.8887 61.2656 93.8398C61.3828 93.791 61.4961 93.7303 61.6016 93.6601C61.709 93.5898 61.8086 93.5078 61.8984 93.4179C61.9883 93.3281 62.0703 93.2285 62.1426 93.1211C62.2129 93.0156 62.2715 92.9023 62.3203 92.7832C62.3691 92.6662 62.4082 92.543 62.4336 92.418C62.459 92.2932 62.4707 92.1641 62.4707 92.0371C62.4707 91.9103 62.459 91.7812 62.4336 91.6543Z" fill="#FF56A7"/>
<path d="M80.2509 74.5734C79.8304 74.2027 79.2705 74.0313 78.7148 74.1004C77.5632 74.2459 74.8472 74.1664 73.8033 72.9945C73.2568 72.3809 73.1543 71.358 73.4988 69.9545C74.6869 65.1156 75.0049 57.2717 75.0049 56.3891C75.0049 45.2979 73.3584 36.8 69.9713 30.4098C65.0465 21.1184 56.5213 16.4072 44.633 16.4072C32.7445 16.4072 24.2195 21.1184 19.2945 30.4098C15.9074 36.8 14.2609 45.2979 14.2609 56.3891C14.2609 56.4678 14.3429 64.6064 15.6556 69.9543C15.9996 71.3555 15.8984 72.377 15.3551 72.9906C14.2441 74.2453 11.3578 74.2111 10.44 74.1006C9.88337 74.0314 9.32439 74.2027 8.90388 74.5736C8.48357 74.9443 8.24255 75.4779 8.24255 76.0385C8.24255 78.9967 9.94001 83.0941 17.79 86.2133V98.0469C17.79 99.1254 18.6644 100 19.7431 100H69.4119C70.4906 100 71.365 99.1254 71.365 98.0469V86.2133C79.2148 83.0939 80.9123 78.9965 80.9123 76.0383C80.9123 75.4777 80.6715 74.9441 80.2509 74.5734ZM67.4588 96.0938H21.6963V93.9898H52.409C53.4877 93.9898 54.3621 93.1154 54.3621 92.0367C54.3621 90.9582 53.4877 90.0836 52.409 90.0836H21.6963C21.6968 90.0572 21.6968 83.8797 21.6963 83.8535C21.6963 81.8338 23.3394 80.1908 25.359 80.1908H38.2906C39.0215 82.9793 41.5631 85.0428 44.5775 85.0428C47.592 85.0428 50.1336 82.9793 50.8644 80.1908H63.7961C65.8156 80.1908 67.4588 81.8338 67.4588 83.8535C67.4582 83.8797 67.4582 96.0674 67.4588 96.0938ZM40.5191 70.548C33.3517 68.7039 28.3461 62.2393 28.3461 54.8277V48.691C34.8902 46.6992 40.5986 42.6322 44.6211 37.0856L46.1521 37.3559C54.6449 38.8555 60.8092 46.2035 60.8092 54.8277C60.809 62.2393 55.8031 68.7039 48.6359 70.548C47.7728 70.7701 47.1695 71.5482 47.1695 72.4397V78.5445C47.1695 79.9738 46.0066 81.1365 44.5775 81.1365C43.1482 81.1365 41.9855 79.9738 41.9855 78.5445V72.4397C41.9855 71.5482 41.3822 70.7701 40.5191 70.548ZM71.1496 82.0578C70.3414 78.7482 67.351 76.2846 63.7959 76.2846H51.0758V73.8941C59.1791 71.1418 64.7152 63.5082 64.7152 54.8277C64.7152 44.3047 57.1939 35.3389 46.8312 33.5092L44.0715 33.0219C43.3144 32.8887 42.549 33.2113 42.1166 33.8475L41.9445 34.1008C38.1517 39.6822 32.459 43.6645 25.9156 45.3139C25.0478 45.5324 24.4398 46.3129 24.4398 47.2076V54.8279C24.4398 63.5084 29.976 71.142 38.0793 73.8943V76.2848H25.359C21.8039 76.2848 18.8135 78.7484 18.0052 82.058C15.9228 81.1066 13.709 79.7508 12.7035 78.0059C14.4984 77.8469 16.7642 77.2814 18.2681 75.5934C19.2674 74.4717 20.2836 72.4213 19.4494 69.0232C18.2629 64.1896 18.1674 56.4633 18.1674 56.3893C18.1674 45.9518 19.6652 38.0521 22.7461 32.2395C26.9996 24.2146 34.159 20.3137 44.6332 20.3137C55.1074 20.3137 62.2666 24.2146 66.5201 32.2395C69.6011 38.0523 71.0988 45.9518 71.0988 56.3893C71.0988 57.6176 70.7359 64.8264 69.7052 69.0232C68.8713 72.4211 69.8875 74.4717 70.8867 75.5934C72.3906 77.2814 74.6566 77.8469 76.4515 78.0059C75.4459 79.7506 73.2322 81.1063 71.1496 82.0578Z" fill="#FF56A7"/>
<path d="M40.8056 51.5969C40.0427 50.834 38.806 50.8342 38.0435 51.597C37.6253 52.015 37.0695 52.2453 36.4783 52.2453C35.8871 52.2453 35.3312 52.0152 34.913 51.597C34.1505 50.8344 32.9138 50.8343 32.1509 51.5969C31.388 52.3597 31.388 53.5963 32.1507 54.359C33.3066 55.515 34.8433 56.1517 36.4781 56.1517C38.1128 56.1517 39.6496 55.515 40.8058 54.359C41.5685 53.5961 41.5683 52.3595 40.8056 51.5969Z" fill="#FF56A7"/>
<path d="M57.0042 51.5969C56.2415 50.8344 55.0048 50.8344 54.2421 51.5969C53.8239 52.0151 53.2681 52.2453 52.6769 52.2453C52.0855 52.2453 51.5298 52.0153 51.1116 51.5971C50.3491 50.8344 49.1124 50.8344 48.3495 51.5969C47.5866 52.3598 47.5866 53.5963 48.3493 54.359C49.5052 55.5151 51.0419 56.1518 52.6767 56.1518C54.3112 56.1518 55.8482 55.5151 57.0042 54.3592C57.7671 53.5961 57.7669 52.3596 57.0042 51.5969Z" fill="#FF56A7"/>
<path d="M48.9048 62.7547C48.1419 61.9922 46.9052 61.9922 46.1425 62.7547C45.2796 63.6178 43.8751 63.6178 43.0121 62.7547C42.2494 61.9922 41.0126 61.9922 40.25 62.7547C39.4871 63.5178 39.4873 64.7543 40.25 65.517C41.4431 66.71 43.0103 67.3065 44.5773 67.3065C46.1445 67.3065 47.7117 66.7102 48.9048 65.517C49.6675 64.7542 49.6675 63.5174 48.9048 62.7547Z" fill="#FF56A7"/>
</g>
<defs>
<clipPath id="clip0">
<rect width="100" height="100" fill="white"/>
</clipPath>
</defs>
</svg>
