<svg width="90" height="90" viewBox="0 0 90 90" fill="none" xmlns="http://www.w3.org/2000/svg">
<g clip-path="url(#clip0)">
<path d="M85.5005 52.5013H81.0004V37.502C80.9956 33.3616 77.6407 30.0068 73.5004 30.002H49.5015C45.3612 30.0068 42.0064 33.3616 42.0015 37.502V52.5013H37.5014C35.0179 52.504 33.0047 54.5172 33.002 57.0014V72.0007C33.0136 75.9481 36.087 79.2082 40.0268 79.4526L37.8701 87H23.8507C23.1331 83.5112 20.0646 81.0051 16.5024 81.0003H13.5026V11.9424C13.5046 7.25074 17.1314 3.35828 21.8114 3.02595C26.4914 2.69363 30.6324 6.03405 31.2978 10.6784L31.3239 10.8603C29.3883 11.6575 28.2643 13.6899 28.6186 15.7525L29.0278 18.1742L25.0172 25.0617C24.4782 25.988 24.4741 27.1312 25.0056 28.0616C25.5377 28.992 26.5257 29.5681 27.5976 29.5729C27.7692 29.5729 27.9409 29.5584 28.1098 29.5296L42.5 27.0976C43.6474 26.9033 44.5791 26.0628 44.8909 24.9416C45.2019 23.8203 44.8366 22.6201 43.9529 21.8628L37.9017 16.6753L37.4925 14.2536C37.202 12.5652 35.9757 11.1892 34.332 10.7065L34.2674 10.254C33.381 4.04971 27.8496 -0.414031 21.5985 0.0302142C15.3475 0.474459 10.5027 5.67563 10.5027 11.9424V81.0003H7.50285V79.5007C7.50285 78.6719 6.83134 78.0004 6.00258 78.0004C5.17451 78.0004 4.503 78.6719 4.503 79.5007V81.6361C1.77367 82.8287 0.00836164 85.5217 0.00286865 88.5002C0.00286865 89.3283 0.674386 89.9998 1.50314 89.9998H88.5003C89.3284 89.9998 89.9999 89.3283 89.9999 88.5002C89.9999 87.6715 89.3284 87 88.5003 87H85.1318L82.9751 79.4526C86.9149 79.2082 89.9883 75.9481 89.9999 72.0007V57.0014C89.9972 54.5172 87.984 52.504 85.5005 52.5013ZM42.0002 24.1396L27.6099 26.5723L31.5402 19.8228L36.0712 19.0572L42.0112 24.1369L42.0002 24.1396ZM34.7851 16.2318L31.8272 16.7316L31.5765 15.2526C31.4399 14.4363 31.9892 13.6631 32.8056 13.5237C32.8887 13.51 32.9725 13.5031 33.0569 13.5031C33.7882 13.5045 34.4123 14.0318 34.5359 14.7528L34.7851 16.2318ZM49.5015 33.0019H73.5004C75.9846 33.0046 77.9978 35.0178 78.0005 37.502V52.778C76.2077 53.409 75.0061 55.1001 75.0006 57.0014V60.0397C73.7098 59.0475 72.1285 58.5065 70.5005 58.501H65.1222L68.5615 55.0617C69.1293 54.4733 69.1218 53.5374 68.543 52.9592C67.9641 52.3804 67.029 52.3722 66.4405 52.9407L63.0012 56.38V49.5014C63.0012 48.6727 62.329 48.0011 61.501 48.0011C60.6729 48.0011 60.0007 48.6727 60.0007 49.5014V56.38L56.5614 52.9407C55.9729 52.3722 55.0378 52.3804 54.4589 52.9592C53.8801 53.5374 53.8726 54.4733 54.4404 55.0617L57.8797 58.501H52.5014C50.8734 58.5065 49.2921 59.0475 48.0013 60.0397V57.0014C47.9958 55.1001 46.7942 53.409 45.0014 52.778V37.502C45.0041 35.0178 47.0173 33.0046 49.5015 33.0019ZM70.5005 61.5008C72.9847 61.5036 74.9979 63.5168 75.0006 66.001V67.5005H48.0013V66.001C48.004 63.5168 50.0172 61.5036 52.5014 61.5008H70.5005ZM72.6304 79.5007L76.9163 87H46.0863L50.3715 79.5007H72.6304ZM75.0006 76.5001H48.0013V70.5004H75.0006V76.5001ZM36.0018 72.0007V57.0014C36.0025 56.1733 36.674 55.5025 37.5014 55.5011H43.5018C44.3292 55.5025 45.0007 56.1733 45.0014 57.0014V76.5001H40.502C38.0178 76.4974 36.0046 74.4849 36.0018 72.0007ZM3.26021 87C3.89739 85.2038 5.5961 84.0022 7.50285 84.0001H16.5024C18.4085 84.0022 20.1079 85.2038 20.7451 87H3.26021ZM40.9901 87L43.1331 79.5007H46.9171L42.6319 87H40.9901ZM80.37 87L76.0848 79.5007H79.8688L82.0118 87H80.37ZM87.0001 72.0007C86.9973 74.4849 84.9841 76.4974 82.4999 76.5001H78.0005V57.0014C78.0012 56.1733 78.6727 55.5025 79.5001 55.5011H85.5005C86.3279 55.5025 86.9987 56.1733 87.0001 57.0014V72.0007Z" fill="#FF56A7"/>
</g>
<defs>
<clipPath id="clip0">
<rect width="90" height="90" fill="white"/>
</clipPath>
</defs>
</svg>
