<svg width="92" height="92" viewBox="0 0 92 92" fill="none" xmlns="http://www.w3.org/2000/svg">
<path d="M51.75 67.5625C51.75 70.7336 54.3289 73.3125 57.5 73.3125H67.5625C71.5257 73.3125 74.75 76.5368 74.75 80.5C74.75 84.4632 71.5257 87.6875 67.5625 87.6875H8.625C6.24738 87.6875 4.3125 85.7526 4.3125 83.375C4.3125 80.9974 6.24738 79.0625 8.625 79.0625H24.4375C37.1191 79.0625 47.4375 68.7441 47.4375 56.0625C47.4375 55.8943 47.4246 55.7276 47.4217 55.5594L78.43 25.6579C79.0984 25.7988 79.7899 25.875 80.5 25.875C86.0488 25.875 90.5625 21.3598 90.5625 15.8125C90.5625 10.2652 86.0488 5.75 80.5 5.75C74.9512 5.75 70.4375 10.2652 70.4375 15.8125C70.4375 16.5226 70.5137 17.2141 70.6546 17.8825L44.5625 44.9406C43.3895 42.8203 41.9074 40.9314 40.1853 39.3142L54.0629 15.7234C57.6093 15.2878 60.375 12.2892 60.375 8.625C60.375 4.66181 57.1507 1.4375 53.1875 1.4375C49.2243 1.4375 46 4.66181 46 8.625C46 9.8785 46.3507 11.0386 46.9171 12.0649L34.0745 35.1814C31.1089 33.8129 27.8343 33.0625 24.4375 33.0625C11.7559 33.0625 1.4375 43.3809 1.4375 56.0625C1.4375 64.7163 6.24594 72.2617 13.3271 76.1875H8.625C4.66181 76.1875 1.4375 79.4118 1.4375 83.375C1.4375 87.3382 4.66181 90.5625 8.625 90.5625H67.5625C73.1113 90.5625 77.625 86.0473 77.625 80.5C77.625 74.9527 73.1113 70.4375 67.5625 70.4375H57.5C55.9144 70.4375 54.625 69.1481 54.625 67.5625C54.625 65.9769 55.9144 64.6875 57.5 64.6875H90.5625V61.8125H57.5C54.3289 61.8125 51.75 64.3914 51.75 67.5625ZM23 76.1142V70.1558L25.875 71.53V76.1128C25.3978 76.1487 24.9234 76.1875 24.4375 76.1875C23.9516 76.1875 23.4772 76.1487 23 76.1142ZM5.10456 61.5983L11.5647 64.6875H6.28187C5.81037 63.6971 5.41219 62.6678 5.10456 61.5983ZM4.41456 58.0807C4.34844 57.4166 4.3125 56.7439 4.3125 56.0625C4.3125 55.8555 4.33694 55.6543 4.34413 55.4487L37.9313 70.9507C37.145 71.6651 36.3098 72.3235 35.4171 72.9071L4.41456 58.0807ZM20.125 37.375H17.0114C18.0133 36.9754 19.0526 36.6505 20.125 36.4147V37.375ZM16.583 51.75H20.125V53.4549L16.583 51.75ZM20.125 48.875H10.6131L6.53631 46.9114C6.69444 46.6023 6.86263 46.299 7.03656 46H20.125V48.875ZM41.3799 66.8811C40.9644 67.5309 40.5217 68.1605 40.0373 68.7556L4.65894 52.4271C4.83862 51.4438 5.09306 50.4893 5.41075 49.5621L41.3799 66.8811ZM39.8533 43.125H34.5V38.6429C36.5211 39.8101 38.3367 41.3209 39.8533 43.125ZM34.5 51.75H37.996L34.5 55.3754V51.75ZM31.625 58.9921L28.75 57.6078V36.4076C29.7332 36.6232 30.6949 36.9078 31.625 37.2643V58.9921ZM32.2805 74.5947C31.1535 75.0734 29.9704 75.4429 28.75 75.7103V72.9057L32.2805 74.5947ZM20.125 75.7103C17.9745 75.2387 15.9591 74.4136 14.1249 73.3125H20.125V75.7103ZM42.7556 64.3511L39.7871 62.9222L44.4058 58.4689C44.1557 60.5432 43.5879 62.5183 42.7556 64.3511ZM80.5 8.625C84.4632 8.625 87.6875 11.8493 87.6875 15.8125C87.6875 19.7757 84.4632 23 80.5 23C76.5368 23 73.3125 19.7757 73.3125 15.8125C73.3125 11.8493 76.5368 8.625 80.5 8.625ZM75.4731 24.5166L37.0243 61.5911L34.4971 60.375H34.5V59.5182L71.7974 20.8409C72.68 22.3632 73.9493 23.6325 75.4731 24.5166ZM40.7689 48.875H34.5V46H41.8557C42.067 46.3666 42.2697 46.7389 42.458 47.1212L40.7689 48.875ZM53.1875 4.3125C55.5651 4.3125 57.5 6.24738 57.5 8.625C57.5 11.0026 55.5651 12.9375 53.1875 12.9375C50.8099 12.9375 48.875 11.0026 48.875 8.625C48.875 6.24738 50.8099 4.3125 53.1875 4.3125ZM48.921 14.3764C49.5204 14.8221 50.1903 15.1656 50.9119 15.4086L37.9414 37.4584C37.5044 37.1421 37.0573 36.8403 36.6002 36.5542L48.921 14.3764ZM25.875 35.9907V56.2235L23 54.8392V36.0108C23.4772 35.9763 23.9516 35.9375 24.4375 35.9375C24.9205 35.9375 25.3992 35.9562 25.875 35.9907ZM12.029 40.25H20.125V43.125H9.04475C9.936 42.0656 10.9394 41.1068 12.029 40.25ZM7.94506 67.5625H17.5763L20.125 68.7815V70.4375H10.3802C9.48175 69.5592 8.66813 68.5961 7.94506 67.5625Z" fill="#FF56A7"/>
</svg>
