<svg width="253" height="70" viewBox="0 0 253 70" fill="none" xmlns="http://www.w3.org/2000/svg">
<rect width="70" height="70" rx="35" fill="#FFB164"/>
<rect width="70" height="70" rx="35" fill="url(#paint0_linear)"/>
<path d="M15.2406 36.3469H9.53655L8.44838 38.9796H5.53491L11.0108 26.6938H13.819L19.3125 38.9796H16.3288L15.2406 36.3469ZM14.3455 34.1881L12.3974 29.4845L10.4492 34.1881H14.3455Z" fill="white"/>
<path d="M31.7671 38.9796L31.7496 31.6081L28.134 37.6808H26.8528L23.2549 31.7661V38.9796H20.5871V26.6938H22.9389L27.5373 34.3285L32.0655 26.6938H34.3998L34.4349 38.9796H31.7671Z" fill="white"/>
<path d="M48.5297 38.9796L48.5122 31.6081L44.8966 37.6808H43.6154L40.0175 31.7661V38.9796H37.3497V26.6938H39.7015L44.2999 34.3285L48.8281 26.6938H51.1624L51.1975 38.9796H48.5297Z" fill="white"/>
<path d="M60.0094 34.6269V38.9796H57.1662V34.5918L52.4099 26.6938H55.4286L58.7107 32.1522L61.9927 26.6938H64.7833L60.0094 34.6269Z" fill="white"/>
<path d="M46.519 46.2108C45.9949 46.2108 45.5198 46.0981 45.0937 45.8728C44.6725 45.6426 44.3394 45.3267 44.0945 44.9251C43.8545 44.5185 43.7345 44.0606 43.7345 43.5512C43.7345 43.0418 43.8545 42.5863 44.0945 42.1847C44.3394 41.7781 44.6725 41.4622 45.0937 41.2369C45.5198 41.0067 45.9974 40.8916 46.5263 40.8916C46.972 40.8916 47.3737 40.97 47.7312 41.1267C48.0937 41.2834 48.3974 41.5087 48.6423 41.8026L47.8782 42.5079C47.5304 42.1063 47.0994 41.9055 46.5851 41.9055C46.2667 41.9055 45.9827 41.9765 45.7329 42.1185C45.4831 42.2557 45.2872 42.4492 45.1451 42.6989C45.008 42.9487 44.9394 43.2328 44.9394 43.5512C44.9394 43.8696 45.008 44.1536 45.1451 44.4034C45.2872 44.6532 45.4831 44.8492 45.7329 44.9912C45.9827 45.1283 46.2667 45.1969 46.5851 45.1969C47.0994 45.1969 47.5304 44.9936 47.8782 44.5871L48.6423 45.2924C48.3974 45.5912 48.0937 45.8189 47.7312 45.9757C47.3688 46.1324 46.9647 46.2108 46.519 46.2108Z" fill="white"/>
<path d="M49.446 40.9798H50.6362V45.1528H53.215V46.1226H49.446V40.9798Z" fill="white"/>
<path d="M56.1003 46.2108C55.3656 46.2108 54.7926 46.0075 54.3811 45.601C53.9746 45.1945 53.7713 44.6141 53.7713 43.8598V40.9798H54.9615V43.8157C54.9615 44.7365 55.3436 45.1969 56.1077 45.1969C56.4799 45.1969 56.764 45.0867 56.9599 44.8663C57.1558 44.641 57.2538 44.2908 57.2538 43.8157V40.9798H58.4293V43.8598C58.4293 44.6141 58.2236 45.1945 57.8121 45.601C57.4056 46.0075 56.835 46.2108 56.1003 46.2108Z" fill="white"/>
<path d="M63.3818 43.4483C63.6756 43.5414 63.9058 43.6981 64.0724 43.9185C64.2389 44.1341 64.3222 44.401 64.3222 44.7194C64.3222 45.17 64.1458 45.5177 63.7932 45.7626C63.4454 46.0026 62.936 46.1226 62.265 46.1226H59.6054V40.9798H62.1181C62.745 40.9798 63.225 41.0998 63.5581 41.3398C63.896 41.5798 64.065 41.9055 64.065 42.3169C64.065 42.5667 64.0038 42.7896 63.8814 42.9855C63.7638 43.1814 63.5973 43.3357 63.3818 43.4483ZM60.7883 41.8761V43.0883H61.9711C62.265 43.0883 62.4879 43.0369 62.6397 42.9341C62.7916 42.8312 62.8675 42.6794 62.8675 42.4785C62.8675 42.2777 62.7916 42.1283 62.6397 42.0304C62.4879 41.9275 62.265 41.8761 61.9711 41.8761H60.7883ZM62.1769 45.2263C62.4903 45.2263 62.7254 45.1749 62.8822 45.072C63.0438 44.9692 63.1246 44.81 63.1246 44.5945C63.1246 44.1683 62.8087 43.9553 62.1769 43.9553H60.7883V45.2263H62.1769Z" fill="white"/>
<path d="M96.216 27.89C96.832 28.058 97.3127 28.352 97.658 28.772C98.0033 29.1827 98.176 29.6773 98.176 30.256C98.176 30.8347 97.9893 31.3433 97.616 31.782C97.252 32.2113 96.762 32.5427 96.146 32.776C95.5393 33 94.8767 33.112 94.158 33.112C93.5047 33.112 92.856 33.014 92.212 32.818C91.568 32.622 90.98 32.328 90.448 31.936L90.938 30.9C91.3673 31.236 91.848 31.488 92.38 31.656C92.912 31.824 93.4487 31.908 93.99 31.908C94.774 31.908 95.432 31.7447 95.964 31.418C96.496 31.082 96.762 30.6247 96.762 30.046C96.762 29.5513 96.5613 29.1733 96.16 28.912C95.7587 28.6413 95.194 28.506 94.466 28.506H92.282V27.372H94.368C94.9933 27.372 95.4787 27.246 95.824 26.994C96.1787 26.7327 96.356 26.3733 96.356 25.916C96.356 25.4027 96.1273 24.9967 95.67 24.698C95.2127 24.3993 94.634 24.25 93.934 24.25C93.4767 24.25 93.01 24.3153 92.534 24.446C92.0673 24.5767 91.624 24.7727 91.204 25.034L90.756 23.886C91.2507 23.606 91.7733 23.396 92.324 23.256C92.8747 23.116 93.4253 23.046 93.976 23.046C94.6667 23.046 95.3013 23.1533 95.88 23.368C96.4587 23.5827 96.916 23.8953 97.252 24.306C97.5973 24.7167 97.77 25.1973 97.77 25.748C97.77 26.2427 97.63 26.6767 97.35 27.05C97.0793 27.4233 96.7013 27.7033 96.216 27.89ZM100.284 25.58H101.628V28.73H105.856V25.58H107.2V33H105.856V29.892H101.628V33H100.284V25.58ZM112.46 25.51C113.486 25.51 114.27 25.762 114.812 26.266C115.362 26.77 115.638 27.5213 115.638 28.52V33H114.364V32.02C114.14 32.3653 113.818 32.6313 113.398 32.818C112.987 32.9953 112.497 33.084 111.928 33.084C111.097 33.084 110.43 32.8833 109.926 32.482C109.431 32.0807 109.184 31.5533 109.184 30.9C109.184 30.2467 109.422 29.724 109.898 29.332C110.374 28.9307 111.13 28.73 112.166 28.73H114.294V28.464C114.294 27.8853 114.126 27.442 113.79 27.134C113.454 26.826 112.959 26.672 112.306 26.672C111.867 26.672 111.438 26.7467 111.018 26.896C110.598 27.036 110.243 27.2273 109.954 27.47L109.394 26.462C109.776 26.154 110.234 25.9207 110.766 25.762C111.298 25.594 111.862 25.51 112.46 25.51ZM112.152 32.048C112.665 32.048 113.108 31.936 113.482 31.712C113.855 31.4787 114.126 31.152 114.294 30.732V29.696H112.222C111.083 29.696 110.514 30.0787 110.514 30.844C110.514 31.2173 110.658 31.5113 110.948 31.726C111.237 31.9407 111.638 32.048 112.152 32.048ZM120.942 29.864H119.402V33H118.058V25.58H119.402V28.716H120.97L123.378 25.58H124.82L122.006 29.15L125.016 33H123.434L120.942 29.864ZM129.357 33.084C128.62 33.084 127.957 32.9207 127.369 32.594C126.781 32.2673 126.319 31.8193 125.983 31.25C125.656 30.6713 125.493 30.018 125.493 29.29C125.493 28.562 125.656 27.9133 125.983 27.344C126.319 26.7653 126.781 26.3173 127.369 26C127.957 25.6733 128.62 25.51 129.357 25.51C130.094 25.51 130.752 25.6733 131.331 26C131.919 26.3173 132.376 26.7653 132.703 27.344C133.039 27.9133 133.207 28.562 133.207 29.29C133.207 30.018 133.039 30.6713 132.703 31.25C132.376 31.8193 131.919 32.2673 131.331 32.594C130.752 32.9207 130.094 33.084 129.357 33.084ZM129.357 31.908C129.833 31.908 130.258 31.8007 130.631 31.586C131.014 31.362 131.312 31.054 131.527 30.662C131.742 30.2607 131.849 29.8033 131.849 29.29C131.849 28.7767 131.742 28.324 131.527 27.932C131.312 27.5307 131.014 27.2227 130.631 27.008C130.258 26.7933 129.833 26.686 129.357 26.686C128.881 26.686 128.452 26.7933 128.069 27.008C127.696 27.2227 127.397 27.5307 127.173 27.932C126.958 28.324 126.851 28.7767 126.851 29.29C126.851 29.8033 126.958 30.2607 127.173 30.662C127.397 31.054 127.696 31.362 128.069 31.586C128.452 31.8007 128.881 31.908 129.357 31.908ZM143.702 25.58V33H142.484V27.582L139.712 32.16H139.124L136.38 27.568V33H135.148V25.58H136.534L139.446 30.592L142.442 25.58H143.702ZM146.318 25.58H147.662V30.984L152.212 25.58H153.43V33H152.086V27.596L147.55 33H146.318V25.58ZM164.592 25.58V33H163.374V27.582L160.602 32.16H160.014L157.27 27.568V33H156.038V25.58H157.424L160.336 30.592L163.332 25.58H164.592ZM179.522 25.58V33H178.304V27.582L175.532 32.16H174.944L172.2 27.568V33H170.968V25.58H172.354L175.266 30.592L178.262 25.58H179.522ZM184.784 25.51C185.811 25.51 186.595 25.762 187.136 26.266C187.687 26.77 187.962 27.5213 187.962 28.52V33H186.688V32.02C186.464 32.3653 186.142 32.6313 185.722 32.818C185.311 32.9953 184.821 33.084 184.252 33.084C183.421 33.084 182.754 32.8833 182.25 32.482C181.755 32.0807 181.508 31.5533 181.508 30.9C181.508 30.2467 181.746 29.724 182.222 29.332C182.698 28.9307 183.454 28.73 184.49 28.73H186.618V28.464C186.618 27.8853 186.45 27.442 186.114 27.134C185.778 26.826 185.283 26.672 184.63 26.672C184.191 26.672 183.762 26.7467 183.342 26.896C182.922 27.036 182.567 27.2273 182.278 27.47L181.718 26.462C182.101 26.154 182.558 25.9207 183.09 25.762C183.622 25.594 184.187 25.51 184.784 25.51ZM184.476 32.048C184.989 32.048 185.433 31.936 185.806 31.712C186.179 31.4787 186.45 31.152 186.618 30.732V29.696H184.546C183.407 29.696 182.838 30.0787 182.838 30.844C182.838 31.2173 182.983 31.5113 183.272 31.726C183.561 31.9407 183.963 32.048 184.476 32.048ZM193.616 33.084C192.86 33.084 192.183 32.9207 191.586 32.594C190.998 32.2673 190.536 31.8193 190.2 31.25C189.864 30.6713 189.696 30.018 189.696 29.29C189.696 28.562 189.864 27.9133 190.2 27.344C190.536 26.7653 190.998 26.3173 191.586 26C192.183 25.6733 192.86 25.51 193.616 25.51C194.288 25.51 194.885 25.6453 195.408 25.916C195.94 26.1867 196.351 26.5787 196.64 27.092L195.618 27.75C195.385 27.3953 195.095 27.1293 194.75 26.952C194.405 26.7747 194.022 26.686 193.602 26.686C193.117 26.686 192.678 26.7933 192.286 27.008C191.903 27.2227 191.6 27.5307 191.376 27.932C191.161 28.324 191.054 28.7767 191.054 29.29C191.054 29.8127 191.161 30.2747 191.376 30.676C191.6 31.068 191.903 31.3713 192.286 31.586C192.678 31.8007 193.117 31.908 193.602 31.908C194.022 31.908 194.405 31.8193 194.75 31.642C195.095 31.4647 195.385 31.1987 195.618 30.844L196.64 31.488C196.351 32.0013 195.94 32.398 195.408 32.678C194.885 32.9487 194.288 33.084 193.616 33.084ZM203.814 26.756H201.098V33H199.754V26.756H197.038V25.58H203.814V26.756ZM211.567 29.332C211.567 29.4347 211.557 29.57 211.539 29.738H205.519C205.603 30.3913 205.887 30.9187 206.373 31.32C206.867 31.712 207.479 31.908 208.207 31.908C209.093 31.908 209.807 31.6093 210.349 31.012L211.091 31.88C210.755 32.272 210.335 32.5707 209.831 32.776C209.336 32.9813 208.781 33.084 208.165 33.084C207.381 33.084 206.685 32.9253 206.079 32.608C205.472 32.2813 205.001 31.8287 204.665 31.25C204.338 30.6713 204.175 30.018 204.175 29.29C204.175 28.5713 204.333 27.9227 204.651 27.344C204.977 26.7653 205.421 26.3173 205.981 26C206.55 25.6733 207.189 25.51 207.899 25.51C208.608 25.51 209.238 25.6733 209.789 26C210.349 26.3173 210.783 26.7653 211.091 27.344C211.408 27.9227 211.567 28.5853 211.567 29.332ZM207.899 26.644C207.255 26.644 206.713 26.84 206.275 27.232C205.845 27.624 205.593 28.1373 205.519 28.772H210.279C210.204 28.1467 209.947 27.638 209.509 27.246C209.079 26.8447 208.543 26.644 207.899 26.644ZM217.586 25.51C218.304 25.51 218.948 25.6687 219.518 25.986C220.087 26.3033 220.53 26.7467 220.848 27.316C221.174 27.8853 221.338 28.5433 221.338 29.29C221.338 30.0367 221.174 30.6993 220.848 31.278C220.53 31.8473 220.087 32.2907 219.518 32.608C218.948 32.9253 218.304 33.084 217.586 33.084C217.054 33.084 216.564 32.9813 216.116 32.776C215.677 32.5707 215.304 32.272 214.996 31.88V35.716H213.652V25.58H214.94V26.756C215.238 26.3453 215.616 26.0373 216.074 25.832C216.531 25.6173 217.035 25.51 217.586 25.51ZM217.474 31.908C217.95 31.908 218.374 31.8007 218.748 31.586C219.13 31.362 219.429 31.054 219.644 30.662C219.868 30.2607 219.98 29.8033 219.98 29.29C219.98 28.7767 219.868 28.324 219.644 27.932C219.429 27.5307 219.13 27.2227 218.748 27.008C218.374 26.7933 217.95 26.686 217.474 26.686C217.007 26.686 216.582 26.798 216.2 27.022C215.826 27.2367 215.528 27.54 215.304 27.932C215.089 28.324 214.982 28.7767 214.982 29.29C214.982 29.8033 215.089 30.2607 215.304 30.662C215.518 31.054 215.817 31.362 216.2 31.586C216.582 31.8007 217.007 31.908 217.474 31.908ZM226.468 33.084C225.731 33.084 225.068 32.9207 224.48 32.594C223.892 32.2673 223.43 31.8193 223.094 31.25C222.768 30.6713 222.604 30.018 222.604 29.29C222.604 28.562 222.768 27.9133 223.094 27.344C223.43 26.7653 223.892 26.3173 224.48 26C225.068 25.6733 225.731 25.51 226.468 25.51C227.206 25.51 227.864 25.6733 228.442 26C229.03 26.3173 229.488 26.7653 229.814 27.344C230.15 27.9133 230.318 28.562 230.318 29.29C230.318 30.018 230.15 30.6713 229.814 31.25C229.488 31.8193 229.03 32.2673 228.442 32.594C227.864 32.9207 227.206 33.084 226.468 33.084ZM226.468 31.908C226.944 31.908 227.369 31.8007 227.742 31.586C228.125 31.362 228.424 31.054 228.638 30.662C228.853 30.2607 228.96 29.8033 228.96 29.29C228.96 28.7767 228.853 28.324 228.638 27.932C228.424 27.5307 228.125 27.2227 227.742 27.008C227.369 26.7933 226.944 26.686 226.468 26.686C225.992 26.686 225.563 26.7933 225.18 27.008C224.807 27.2227 224.508 27.5307 224.284 27.932C224.07 28.324 223.962 28.7767 223.962 29.29C223.962 29.8033 224.07 30.2607 224.284 30.662C224.508 31.054 224.807 31.362 225.18 31.586C225.563 31.8007 225.992 31.908 226.468 31.908ZM237.313 29.15C238.274 29.3927 238.755 29.9947 238.755 30.956C238.755 31.6093 238.508 32.1133 238.013 32.468C237.528 32.8227 236.8 33 235.829 33H232.259V25.58H235.703C236.58 25.58 237.266 25.748 237.761 26.084C238.256 26.4107 238.503 26.8773 238.503 27.484C238.503 27.876 238.396 28.2167 238.181 28.506C237.976 28.786 237.686 29.0007 237.313 29.15ZM233.575 28.772H235.591C236.104 28.772 236.492 28.6787 236.753 28.492C237.024 28.3053 237.159 28.0347 237.159 27.68C237.159 26.9707 236.636 26.616 235.591 26.616H233.575V28.772ZM235.731 31.964C236.291 31.964 236.711 31.8753 236.991 31.698C237.271 31.5207 237.411 31.2453 237.411 30.872C237.411 30.4893 237.28 30.2047 237.019 30.018C236.767 29.8313 236.366 29.738 235.815 29.738H233.575V31.964H235.731ZM91.302 42.58H92.646V47.984L97.196 42.58H98.414V50H97.07V44.596L92.534 50H91.302V42.58ZM111.656 42.58V50H110.312V43.756H106.126V50H104.782V42.58H111.656ZM117.435 50.084C116.698 50.084 116.035 49.9207 115.447 49.594C114.859 49.2673 114.397 48.8193 114.061 48.25C113.734 47.6713 113.571 47.018 113.571 46.29C113.571 45.562 113.734 44.9133 114.061 44.344C114.397 43.7653 114.859 43.3173 115.447 43C116.035 42.6733 116.698 42.51 117.435 42.51C118.172 42.51 118.83 42.6733 119.409 43C119.997 43.3173 120.454 43.7653 120.781 44.344C121.117 44.9133 121.285 45.562 121.285 46.29C121.285 47.018 121.117 47.6713 120.781 48.25C120.454 48.8193 119.997 49.2673 119.409 49.594C118.83 49.9207 118.172 50.084 117.435 50.084ZM117.435 48.908C117.911 48.908 118.336 48.8007 118.709 48.586C119.092 48.362 119.39 48.054 119.605 47.662C119.82 47.2607 119.927 46.8033 119.927 46.29C119.927 45.7767 119.82 45.324 119.605 44.932C119.39 44.5307 119.092 44.2227 118.709 44.008C118.336 43.7933 117.911 43.686 117.435 43.686C116.959 43.686 116.53 43.7933 116.147 44.008C115.774 44.2227 115.475 44.5307 115.251 44.932C115.036 45.324 114.929 45.7767 114.929 46.29C114.929 46.8033 115.036 47.2607 115.251 47.662C115.475 48.054 115.774 48.362 116.147 48.586C116.53 48.8007 116.959 48.908 117.435 48.908ZM126.11 46.864H124.57V50H123.226V42.58H124.57V45.716H126.138L128.546 42.58H129.988L127.174 46.15L130.184 50H128.602L126.11 46.864ZM137.791 42.58L134.193 50.742C133.876 51.498 133.503 52.03 133.073 52.338C132.653 52.646 132.145 52.8 131.547 52.8C131.183 52.8 130.829 52.7393 130.483 52.618C130.147 52.506 129.867 52.338 129.643 52.114L130.217 51.106C130.6 51.47 131.043 51.652 131.547 51.652C131.874 51.652 132.145 51.5633 132.359 51.386C132.583 51.218 132.784 50.924 132.961 50.504L133.199 49.986L129.923 42.58H131.323L133.913 48.516L136.475 42.58H137.791ZM146.041 42.58V50H144.697V43.756H140.511V50H139.167V42.58H146.041ZM151.288 42.51C152.315 42.51 153.099 42.762 153.64 43.266C154.191 43.77 154.466 44.5213 154.466 45.52V50H153.192V49.02C152.968 49.3653 152.646 49.6313 152.226 49.818C151.815 49.9953 151.325 50.084 150.756 50.084C149.925 50.084 149.258 49.8833 148.754 49.482C148.259 49.0807 148.012 48.5533 148.012 47.9C148.012 47.2467 148.25 46.724 148.726 46.332C149.202 45.9307 149.958 45.73 150.994 45.73H153.122V45.464C153.122 44.8853 152.954 44.442 152.618 44.134C152.282 43.826 151.787 43.672 151.134 43.672C150.695 43.672 150.266 43.7467 149.846 43.896C149.426 44.036 149.071 44.2273 148.782 44.47L148.222 43.462C148.605 43.154 149.062 42.9207 149.594 42.762C150.126 42.594 150.691 42.51 151.288 42.51ZM150.98 49.048C151.493 49.048 151.937 48.936 152.31 48.712C152.683 48.4787 152.954 48.152 153.122 47.732V46.696H151.05C149.911 46.696 149.342 47.0787 149.342 47.844C149.342 48.2173 149.487 48.5113 149.776 48.726C150.065 48.9407 150.467 49.048 150.98 49.048ZM162.416 43.756H159.7V50H158.356V43.756H155.64V42.58H162.416V43.756ZM170.168 46.332C170.168 46.4347 170.159 46.57 170.14 46.738H164.12C164.204 47.3913 164.489 47.9187 164.974 48.32C165.469 48.712 166.08 48.908 166.808 48.908C167.695 48.908 168.409 48.6093 168.95 48.012L169.692 48.88C169.356 49.272 168.936 49.5707 168.432 49.776C167.937 49.9813 167.382 50.084 166.766 50.084C165.982 50.084 165.287 49.9253 164.68 49.608C164.073 49.2813 163.602 48.8287 163.266 48.25C162.939 47.6713 162.776 47.018 162.776 46.29C162.776 45.5713 162.935 44.9227 163.252 44.344C163.579 43.7653 164.022 43.3173 164.582 43C165.151 42.6733 165.791 42.51 166.5 42.51C167.209 42.51 167.839 42.6733 168.39 43C168.95 43.3173 169.384 43.7653 169.692 44.344C170.009 44.9227 170.168 45.5853 170.168 46.332ZM166.5 43.644C165.856 43.644 165.315 43.84 164.876 44.232C164.447 44.624 164.195 45.1373 164.12 45.772H168.88C168.805 45.1467 168.549 44.638 168.11 44.246C167.681 43.8447 167.144 43.644 166.5 43.644ZM178.5 42.58V50H177.156V43.756H173.964L173.88 45.408C173.833 46.4067 173.745 47.242 173.614 47.914C173.483 48.5767 173.269 49.1087 172.97 49.51C172.671 49.9113 172.256 50.112 171.724 50.112C171.481 50.112 171.206 50.07 170.898 49.986L170.982 48.852C171.103 48.88 171.215 48.894 171.318 48.894C171.691 48.894 171.971 48.7307 172.158 48.404C172.345 48.0773 172.466 47.69 172.522 47.242C172.578 46.794 172.629 46.1547 172.676 45.324L172.802 42.58H178.5ZM187.805 46.332C187.805 46.4347 187.796 46.57 187.777 46.738H181.757C181.841 47.3913 182.126 47.9187 182.611 48.32C183.106 48.712 183.717 48.908 184.445 48.908C185.332 48.908 186.046 48.6093 186.587 48.012L187.329 48.88C186.993 49.272 186.573 49.5707 186.069 49.776C185.574 49.9813 185.019 50.084 184.403 50.084C183.619 50.084 182.924 49.9253 182.317 49.608C181.71 49.2813 181.239 48.8287 180.903 48.25C180.576 47.6713 180.413 47.018 180.413 46.29C180.413 45.5713 180.572 44.9227 180.889 44.344C181.216 43.7653 181.659 43.3173 182.219 43C182.788 42.6733 183.428 42.51 184.137 42.51C184.846 42.51 185.476 42.6733 186.027 43C186.587 43.3173 187.021 43.7653 187.329 44.344C187.646 44.9227 187.805 45.5853 187.805 46.332ZM184.137 43.644C183.493 43.644 182.952 43.84 182.513 44.232C182.084 44.624 181.832 45.1373 181.757 45.772H186.517C186.442 45.1467 186.186 44.638 185.747 44.246C185.318 43.8447 184.781 43.644 184.137 43.644ZM189.89 42.58H191.234V47.984L195.784 42.58H197.002V50H195.658V44.596L191.122 50H189.89V42.58ZM193.362 41.614C192.671 41.614 192.135 41.4507 191.752 41.124C191.369 40.788 191.173 40.3073 191.164 39.682H192.074C192.083 40.0273 192.2 40.3073 192.424 40.522C192.657 40.7273 192.965 40.83 193.348 40.83C193.731 40.83 194.039 40.7273 194.272 40.522C194.505 40.3073 194.627 40.0273 194.636 39.682H195.574C195.565 40.3073 195.364 40.788 194.972 41.124C194.58 41.4507 194.043 41.614 193.362 41.614Z" fill="#FF56A7"/>
<defs>
<linearGradient id="paint0_linear" x1="0" y1="70" x2="85.6901" y2="54.9099" gradientUnits="userSpaceOnUse">
<stop stop-color="#FFB164"/>
<stop offset="1" stop-color="#FF56A7"/>
</linearGradient>
</defs>
</svg>
